<svg viewBox="0 0 192 192" xmlns="http://www.w3.org/2000/svg">
  <g fill="#fff7ed">
    <path d=" M 0.00 0.00 L 192.00 0.00 L 192.00 192.00 L 0.00 192.00 L 0.00 0.00 M 76.03 9.33 C 61.43 13.90 48.56 23.36 39.34 35.50 C 36.76 38.72 34.88 42.43 32.19 45.55 C 28.04 50.26 25.12 55.93 22.47 61.57 C 8.36 92.64 14.49 132.03 38.34 156.66 C 52.28 171.55 72.46 180.64 92.95 180.25 C 104.88 179.96 116.91 176.95 127.15 170.73 C 129.72 175.09 131.34 180.31 135.56 183.44 C 138.19 185.56 141.93 186.42 145.12 185.08 C 150.75 182.87 154.91 178.28 159.31 174.32 C 163.15 170.59 167.63 166.88 169.11 161.50 C 172.55 157.77 176.81 153.50 176.47 148.04 C 174.41 141.17 168.01 136.78 162.35 132.94 C 175.23 110.77 177.73 82.99 168.89 58.92 C 161.74 38.91 146.72 21.57 127.32 12.65 C 111.43 5.22 92.74 4.04 76.03 9.33 Z" />
    <path d=" M 88.48 16.66 C 92.30 14.25 95.98 20.91 91.90 22.97 C 87.92 25.54 84.10 18.59 88.48 16.66 Z" />
    <path d=" M 98.94 15.97 C 102.53 16.21 106.27 15.93 109.71 17.15 C 112.34 18.66 111.81 22.65 108.95 23.55 C 105.58 23.54 102.25 22.60 98.85 22.94 C 97.78 21.87 96.20 20.78 96.56 19.03 C 96.79 17.66 98.06 16.91 98.94 15.97 Z" />
    <path d=" M 117.37 20.22 C 119.20 18.90 121.25 20.37 123.04 21.01 C 139.48 28.73 152.58 43.13 159.13 60.03 C 160.63 62.89 156.40 66.26 153.97 64.07 C 152.15 62.31 151.67 59.61 150.47 57.44 C 143.66 43.69 132.05 32.10 117.77 26.28 C 115.09 25.36 115.01 21.58 117.37 20.22 Z" />
    <path d=" M 68.90 71.36 C 74.76 66.37 82.26 63.04 90.04 63.17 C 100.82 62.96 111.16 69.06 116.99 78.00 C 120.92 83.74 122.69 90.63 123.27 97.49 C 120.26 95.32 118.20 91.82 114.68 90.41 C 109.95 89.14 105.82 92.69 102.57 95.64 C 99.96 98.00 97.50 101.24 98.31 104.99 C 95.48 107.67 91.93 110.10 90.75 114.01 C 89.86 116.38 91.61 118.57 92.42 120.67 C 85.64 119.06 79.24 115.62 74.62 110.36 C 65.33 100.05 62.58 83.83 68.90 71.36 Z" />
    <path d=" M 112.16 99.13 C 114.10 98.29 115.71 99.84 117.00 101.06 C 132.82 115.91 148.81 130.58 164.59 145.47 C 167.21 147.48 165.03 151.76 161.96 151.55 C 159.32 150.56 157.61 148.15 155.52 146.37 C 140.72 132.57 125.86 118.82 111.10 104.98 C 108.96 103.34 109.89 100.11 112.16 99.13 Z" />
    <path d=" M 57.36 101.42 C 59.56 99.50 62.39 101.65 62.93 104.03 C 67.41 116.18 79.11 125.15 91.99 126.43 C 94.59 126.40 96.59 129.55 94.96 131.76 C 93.42 134.31 90.15 133.13 87.82 132.77 C 74.56 130.32 62.87 121.04 57.38 108.73 C 56.33 106.43 54.60 103.22 57.36 101.42 Z" />
  </g>
  <g fill="#cb3500">
    <path d=" M 76.03 9.33 C 92.74 4.04 111.43 5.22 127.32 12.65 C 146.72 21.57 161.74 38.91 168.89 58.92 C 177.73 82.99 175.23 110.77 162.35 132.94 C 168.01 136.78 174.41 141.17 176.47 148.04 C 176.81 153.50 172.55 157.77 169.11 161.50 C 162.89 166.67 157.51 174.09 149.11 175.61 C 140.89 175.37 137.53 166.83 134.21 160.68 C 116.97 170.60 95.51 172.74 76.66 166.42 C 61.42 161.42 48.10 151.22 38.69 138.30 C 29.28 125.45 23.76 109.91 22.47 94.07 C 20.83 77.34 25.17 60.64 32.19 45.55 C 34.88 42.43 36.76 38.72 39.34 35.50 C 48.56 23.36 61.43 13.90 76.03 9.33 M 88.48 16.66 C 84.10 18.59 87.92 25.54 91.90 22.97 C 95.98 20.91 92.30 14.25 88.48 16.66 M 98.94 15.97 C 98.06 16.91 96.79 17.66 96.56 19.03 C 96.20 20.78 97.78 21.87 98.85 22.94 C 102.25 22.60 105.58 23.54 108.95 23.55 C 111.81 22.65 112.34 18.66 109.71 17.15 C 106.27 15.93 102.53 16.21 98.94 15.97 M 117.37 20.22 C 115.01 21.58 115.09 25.36 117.77 26.28 C 132.05 32.10 143.66 43.69 150.47 57.44 C 151.67 59.61 152.15 62.31 153.97 64.07 C 156.40 66.26 160.63 62.89 159.13 60.03 C 152.58 43.13 139.48 28.73 123.04 21.01 C 121.25 20.37 119.20 18.90 117.37 20.22 M 68.90 71.36 C 62.58 83.83 65.33 100.05 74.62 110.36 C 79.24 115.62 85.64 119.06 92.42 120.67 C 97.79 121.18 103.30 121.10 108.45 119.31 C 105.21 114.43 100.86 110.32 98.31 104.99 C 97.50 101.24 99.96 98.00 102.57 95.64 C 105.82 92.69 109.95 89.14 114.68 90.41 C 118.20 91.82 120.26 95.32 123.27 97.49 C 124.57 98.88 125.96 100.20 127.60 101.18 C 129.37 96.32 130.72 91.22 130.58 86.01 C 130.75 71.24 120.79 56.59 106.36 52.57 C 91.47 48.04 74.38 56.99 68.90 71.36 M 112.16 99.13 C 109.89 100.11 108.96 103.34 111.10 104.98 C 125.86 118.82 140.72 132.57 155.52 146.37 C 157.61 148.15 159.32 150.56 161.96 151.55 C 165.03 151.76 167.21 147.48 164.59 145.47 C 148.81 130.58 132.82 115.91 117.00 101.06 C 115.71 99.84 114.10 98.29 112.16 99.13 M 57.36 101.42 C 54.60 103.22 56.33 106.43 57.38 108.73 C 62.87 121.04 74.56 130.32 87.82 132.77 C 90.15 133.13 93.42 134.31 94.96 131.76 C 96.59 129.55 94.59 126.40 91.99 126.43 C 79.11 125.15 67.41 116.18 62.93 104.03 C 62.39 101.65 59.56 99.50 57.36 101.42 Z" />
  </g>
  <g fill="#6b4117">
    <path d=" M 22.47 61.57 C 25.12 55.93 28.04 50.26 32.19 45.55 C 25.17 60.64 20.83 77.34 22.47 94.07 C 23.76 109.91 29.28 125.45 38.69 138.30 C 48.10 151.22 61.42 161.42 76.66 166.42 C 95.51 172.74 116.97 170.60 134.21 160.68 C 137.53 166.83 140.89 175.37 149.11 175.61 C 157.51 174.09 162.89 166.67 169.11 161.50 C 167.63 166.88 163.15 170.59 159.31 174.32 C 154.91 178.28 150.75 182.87 145.12 185.08 C 141.93 186.42 138.19 185.56 135.56 183.44 C 131.34 180.31 129.72 175.09 127.15 170.73 C 116.91 176.95 104.88 179.96 92.95 180.25 C 72.46 180.64 52.28 171.55 38.34 156.66 C 14.49 132.03 8.36 92.64 22.47 61.57 Z" />
    <path d=" M 68.90 71.36 C 74.38 56.99 91.47 48.04 106.36 52.57 C 120.79 56.59 130.75 71.24 130.58 86.01 C 130.72 91.22 129.37 96.32 127.60 101.18 C 125.96 100.20 124.57 98.88 123.27 97.49 C 122.69 90.63 120.92 83.74 116.99 78.00 C 111.16 69.06 100.82 62.96 90.04 63.17 C 82.26 63.04 74.76 66.37 68.90 71.36 Z" />
    <path d=" M 98.31 104.99 C 100.86 110.32 105.21 114.43 108.45 119.31 C 103.30 121.10 97.79 121.18 92.42 120.67 C 91.61 118.57 89.86 116.38 90.75 114.01 C 91.93 110.10 95.48 107.67 98.31 104.99 Z" />
  </g>
</svg>
