<svg width="1325pt" height="717pt" viewBox="0 0 1325 717" xmlns="http://www.w3.org/2000/svg">
  <g fill="#cb3500">
    <path d=" M 264.95 6.42 C 308.42 -3.07 354.20 -1.92 397.09 9.95 C 443.30 22.62 485.92 47.44 520.60 80.41 C 550.98 109.18 575.49 144.05 592.63 182.20 C 579.37 178.78 564.73 178.34 552.17 184.49 C 536.92 154.50 516.00 127.58 491.59 104.51 C 474.40 88.47 454.95 74.91 434.27 63.74 C 426.87 59.87 419.32 56.11 411.30 53.71 C 404.42 51.56 396.51 56.18 394.77 63.11 C 392.88 69.21 396.22 76.34 402.05 78.89 C 419.75 85.14 435.79 95.23 451.03 106.04 C 469.91 119.49 486.25 136.20 500.72 154.24 C 512.31 168.57 521.90 184.39 530.29 200.77 C 516.12 208.67 507.21 222.96 499.99 237.00 C 495.50 246.97 491.73 257.92 493.19 269.01 C 493.88 275.62 496.39 282.08 500.79 287.12 C 507.27 294.72 512.84 303.07 519.72 310.33 C 533.16 324.07 547.97 336.37 562.09 349.38 C 552.19 357.80 542.51 366.48 532.60 374.89 C 528.78 376.39 526.16 379.65 523.13 382.26 C 517.79 387.22 511.96 391.69 507.21 397.26 C 498.61 407.10 493.04 419.86 492.89 433.02 C 492.78 442.13 495.79 450.87 498.77 459.36 C 504.84 475.36 514.08 490.68 527.77 501.26 C 533.48 505.54 539.73 509.95 547.10 510.42 C 559.99 510.91 573.71 508.38 583.77 499.76 C 590.75 504.94 598.42 509.26 604.70 515.34 C 610.81 521.21 616.35 527.65 622.09 533.89 C 629.35 541.91 632.53 553.26 630.76 563.91 C 629.10 575.38 622.13 585.11 614.79 593.71 C 610.04 599.31 604.73 604.39 599.49 609.51 C 586.47 621.85 573.64 634.45 559.53 645.56 C 553.07 650.40 546.10 654.62 538.65 657.76 C 529.68 661.58 519.07 661.89 510.11 657.88 C 498.30 652.89 489.00 643.16 482.99 631.99 C 477.82 622.35 472.75 612.66 467.57 603.03 C 434.79 621.52 398.41 633.79 360.94 637.82 C 319.39 642.66 276.81 637.60 237.42 623.58 C 178.59 602.75 127.53 562.15 91.87 511.16 C 58.74 464.08 38.53 408.20 32.89 350.97 C 29.19 313.60 31.36 275.61 39.85 239.01 C 46.59 209.38 57.73 180.86 72.07 154.10 C 85.78 129.99 102.03 107.23 121.45 87.38 C 160.07 47.25 210.40 18.17 264.95 6.42 M 329.29 39.38 C 325.15 40.76 321.75 44.20 320.50 48.39 C 318.58 54.32 321.55 61.21 327.02 64.10 C 331.25 66.55 336.28 65.46 340.92 65.76 C 348.36 65.85 355.69 67.08 363.01 68.29 C 370.59 69.30 377.86 62.56 377.76 54.97 C 377.87 48.34 372.52 42.27 365.94 41.48 C 353.90 39.43 341.44 37.72 329.29 39.38 M 289.44 40.58 C 283.44 42.91 279.64 49.70 280.93 56.04 C 282.08 63.31 289.70 68.74 296.96 67.30 C 304.80 66.22 310.44 57.61 308.17 49.99 C 306.33 42.09 296.89 37.32 289.44 40.58 M 244.41 209.35 C 229.99 222.58 218.25 238.93 210.98 257.13 C 191.48 302.01 197.54 357.04 226.64 396.48 C 245.29 422.21 273.67 441.03 305.09 446.68 C 325.72 450.46 347.24 448.51 367.01 441.58 C 359.04 429.88 350.02 418.89 341.24 407.78 C 335.09 400.67 330.41 392.34 327.35 383.46 C 325.63 374.37 330.05 365.41 335.65 358.52 C 343.88 349.42 352.93 340.89 363.44 334.47 C 369.63 330.77 376.66 327.92 383.99 328.15 C 390.52 328.18 396.89 330.91 401.67 335.31 C 408.48 341.71 415.08 348.33 421.95 354.67 C 425.53 358.43 429.64 361.93 433.38 365.64 C 435.83 367.76 437.79 370.48 440.65 372.10 C 453.87 342.50 456.88 308.46 448.78 277.06 C 441.44 247.86 424.42 221.03 400.52 202.62 C 379.65 186.45 353.45 176.93 326.97 177.10 C 296.63 176.63 266.66 188.91 244.41 209.35 M 376.35 363.49 C 367.72 366.58 364.96 378.99 371.66 385.33 C 394.89 407.09 418.25 428.73 441.55 450.43 C 445.48 454.29 451.86 455.31 456.76 452.76 C 462.17 450.23 465.36 443.83 464.07 437.98 C 463.43 433.97 460.45 431.00 457.53 428.45 C 435.26 407.74 413.01 387.01 390.74 366.30 C 387.03 362.65 381.17 361.49 376.35 363.49 M 169.35 370.46 C 163.15 373.04 159.51 380.63 161.85 387.01 C 170.55 412.07 185.48 434.95 204.86 453.05 C 231.21 477.76 266.01 493.29 301.99 496.40 C 310.75 496.92 317.99 487.31 315.10 479.02 C 313.57 473.76 308.56 469.78 303.09 469.46 C 279.49 467.04 256.51 458.51 237.19 444.71 C 214.26 428.47 196.73 404.87 187.40 378.39 C 185.08 371.23 176.20 367.28 169.35 370.46 M 566.47 544.68 C 560.47 546.47 556.10 552.65 556.67 558.94 C 556.95 566.61 564.54 572.96 572.14 571.91 C 579.65 571.21 585.66 563.68 584.44 556.18 C 583.59 547.92 574.35 541.92 566.47 544.68 Z" />
    <path d=" M 954.06 18.04 C 991.35 9.22 1030.48 8.24 1068.15 15.30 C 1110.24 23.11 1150.29 40.94 1184.75 66.26 C 1238.86 105.85 1279.07 163.36 1299.65 227.02 C 1326.72 309.93 1321.36 403.37 1282.83 481.84 C 1279.02 489.70 1274.80 497.35 1270.43 504.92 C 1276.46 509.50 1282.51 514.06 1288.85 518.21 C 1299.54 525.33 1307.50 535.57 1316.18 544.87 C 1326.10 555.91 1327.39 572.91 1320.98 586.02 C 1314.52 599.37 1303.70 609.87 1293.26 620.13 C 1280.51 632.11 1268.03 644.43 1254.32 655.34 C 1247.60 660.56 1240.25 665.03 1232.41 668.35 C 1223.33 672.19 1212.63 672.47 1203.61 668.33 C 1191.35 663.13 1181.92 652.77 1175.93 641.07 C 1170.93 631.95 1166.36 622.59 1161.15 613.59 C 1129.73 631.54 1094.82 643.37 1058.90 647.90 C 1008.82 654.48 957.03 646.68 910.94 626.07 C 856.52 601.96 810.30 560.76 778.24 510.79 C 787.46 509.62 795.17 504.02 802.07 498.18 C 803.35 497.04 804.36 495.64 805.44 494.32 C 828.00 481.23 841.33 456.84 847.43 432.17 C 851.02 417.98 847.41 402.60 839.30 390.61 C 832.10 379.95 821.49 372.39 812.09 363.85 C 801.39 354.53 790.65 345.25 779.81 336.09 C 793.46 324.36 806.92 312.39 819.78 299.80 C 826.17 293.73 831.13 286.40 836.69 279.61 C 840.05 275.28 844.03 271.27 846.07 266.09 C 849.89 256.75 849.53 246.08 846.47 236.58 C 843.40 225.45 837.35 215.47 830.92 205.99 C 820.93 192.02 805.33 181.27 787.92 179.84 C 776.98 179.30 765.68 180.86 755.78 185.73 C 757.96 178.65 762.35 172.54 765.02 165.66 C 772.29 154.11 779.01 142.18 787.23 131.24 C 807.99 102.65 833.66 77.56 863.04 57.89 C 890.69 39.34 921.64 25.69 954.06 18.04 M 1023.23 50.38 C 1019.69 51.77 1016.74 54.67 1015.41 58.25 C 1013.12 63.99 1015.49 71.04 1020.72 74.31 C 1023.68 76.43 1027.44 76.62 1030.96 76.44 C 1039.68 76.36 1048.39 77.35 1056.95 78.99 C 1064.96 80.47 1072.94 73.13 1072.30 65.04 C 1072.14 59.21 1067.68 53.83 1062.01 52.57 C 1051.51 50.35 1040.77 49.44 1030.05 49.45 C 1027.75 49.51 1025.39 49.52 1023.23 50.38 M 983.45 51.61 C 977.76 54.18 974.19 60.81 975.56 66.97 C 976.77 73.95 983.92 79.20 990.96 78.16 C 998.60 77.41 1004.59 69.51 1003.05 61.93 C 1001.84 53.21 991.35 47.60 983.45 51.61 M 1098.39 64.59 C 1093.37 66.15 1089.46 70.80 1088.95 76.04 C 1088.23 81.78 1091.74 87.70 1097.09 89.86 C 1108.91 93.87 1119.85 100.04 1130.44 106.57 C 1146.16 116.45 1161.06 127.79 1174.04 141.11 C 1199.19 166.24 1219.66 196.23 1232.54 229.45 C 1234.23 234.85 1239.25 239.23 1245.04 239.33 C 1252.04 239.85 1258.66 234.00 1259.12 227.03 C 1259.56 223.33 1257.83 219.94 1256.50 216.62 C 1238.40 171.99 1208.34 132.43 1170.97 102.17 C 1153.73 88.67 1135.14 76.70 1115.08 67.85 C 1109.80 65.86 1104.16 62.64 1098.39 64.59 M 992.96 190.77 C 959.14 198.59 929.79 221.75 912.58 251.68 C 909.78 256.74 906.68 261.75 905.07 267.34 C 903.42 269.51 902.85 272.28 901.83 274.77 C 885.55 319.59 893.20 372.57 922.76 410.21 C 941.31 434.24 968.55 451.79 998.56 457.16 L 998.78 457.57 C 1002.19 457.62 1005.53 458.41 1008.93 458.63 C 1026.45 460.33 1044.37 458.09 1060.88 451.98 C 1052.73 440.88 1044.33 429.97 1035.71 419.24 C 1029.41 411.69 1023.54 403.18 1021.41 393.45 L 1021.14 393.68 C 1019.88 388.48 1021.35 383.15 1023.53 378.42 C 1027.20 370.05 1034.18 363.85 1040.67 357.66 C 1049.43 349.91 1059.01 342.20 1070.63 339.42 C 1079.23 337.27 1088.76 339.74 1095.27 345.75 C 1102.20 352.29 1108.97 359.00 1115.91 365.54 C 1121.98 371.27 1127.94 377.13 1134.09 382.79 C 1143.29 363.30 1147.46 341.53 1146.90 320.02 C 1146.37 277.67 1125.62 235.66 1091.07 210.82 C 1063.30 190.39 1026.54 182.65 992.96 190.77 M 1076.43 373.58 C 1067.50 375.65 1063.31 387.64 1069.21 394.73 C 1075.05 400.88 1081.59 406.33 1087.68 412.25 C 1144.64 465.31 1201.58 518.41 1258.55 571.48 C 1261.02 573.86 1263.60 576.46 1267.08 577.25 C 1273.48 579.13 1280.81 575.30 1283.10 569.07 C 1285.19 564.05 1283.67 557.90 1279.65 554.29 C 1216.37 495.27 1153.03 436.30 1089.75 377.27 C 1086.35 373.82 1081.13 372.19 1076.43 373.58 M 864.23 381.11 C 857.78 383.61 854.03 391.44 856.50 397.99 C 865.84 424.68 882.20 448.89 903.52 467.48 C 927.52 488.52 957.84 502.15 989.46 506.41 C 994.29 507.10 999.75 508.09 1004.04 505.05 C 1010.83 501.04 1012.38 490.84 1007.09 485.00 C 1004.40 481.65 1000.13 480.18 995.96 480.02 C 976.20 477.80 956.94 471.18 939.94 460.86 C 913.48 444.84 892.93 419.46 882.46 390.38 C 880.58 382.74 871.55 377.85 864.23 381.11 Z" />
  </g>
  <g fill="#ffe6c3">
    <path d=" M 329.29 39.38 C 341.44 37.72 353.90 39.43 365.94 41.48 C 372.52 42.27 377.87 48.34 377.76 54.97 C 377.86 62.56 370.59 69.30 363.01 68.29 C 355.69 67.08 348.36 65.85 340.92 65.76 C 336.28 65.46 331.25 66.55 327.02 64.10 C 321.55 61.21 318.58 54.32 320.50 48.39 C 321.75 44.20 325.15 40.76 329.29 39.38 Z" />
    <path d=" M 289.44 40.58 C 296.89 37.32 306.33 42.09 308.17 49.99 C 310.44 57.61 304.80 66.22 296.96 67.30 C 289.70 68.74 282.08 63.31 280.93 56.04 C 279.64 49.70 283.44 42.91 289.44 40.58 Z" />
    <path d=" M 1023.23 50.38 C 1025.39 49.52 1027.75 49.51 1030.05 49.45 C 1040.77 49.44 1051.51 50.35 1062.01 52.57 C 1067.68 53.83 1072.14 59.21 1072.30 65.04 C 1072.94 73.13 1064.96 80.47 1056.95 78.99 C 1048.39 77.35 1039.68 76.36 1030.96 76.44 C 1027.44 76.62 1023.68 76.43 1020.72 74.31 C 1015.49 71.04 1013.12 63.99 1015.41 58.25 C 1016.74 54.67 1019.69 51.77 1023.23 50.38 Z" />
    <path d=" M 983.45 51.61 C 991.35 47.60 1001.84 53.21 1003.05 61.93 C 1004.59 69.51 998.60 77.41 990.96 78.16 C 983.92 79.20 976.77 73.95 975.56 66.97 C 974.19 60.81 977.76 54.18 983.45 51.61 Z" />
    <path d=" M 394.77 63.11 C 396.51 56.18 404.42 51.56 411.30 53.71 C 419.32 56.11 426.87 59.87 434.27 63.74 C 454.95 74.91 474.40 88.47 491.59 104.51 C 516.00 127.58 536.92 154.50 552.17 184.49 C 564.73 178.34 579.37 178.78 592.63 182.20 C 600.58 184.38 607.66 188.83 614.03 193.97 C 635.82 210.89 658.01 227.36 678.75 245.58 C 700.26 226.67 723.33 209.62 745.95 192.07 C 749.06 189.73 752.31 187.53 755.78 185.73 C 765.68 180.86 776.98 179.30 787.92 179.84 C 805.33 181.27 820.93 192.02 830.92 205.99 C 837.35 215.47 843.40 225.45 846.47 236.58 C 849.53 246.08 849.89 256.75 846.07 266.09 C 844.03 271.27 840.05 275.28 836.69 279.61 C 831.13 286.40 826.17 293.73 819.78 299.80 C 806.92 312.39 793.46 324.36 779.81 336.09 C 790.65 345.25 801.39 354.53 812.09 363.85 C 821.49 372.39 832.10 379.95 839.30 390.61 C 847.41 402.60 851.02 417.98 847.43 432.17 C 841.33 456.84 828.00 481.23 805.44 494.32 C 801.87 496.03 798.08 497.55 794.07 497.65 C 781.17 497.98 767.46 495.35 757.54 486.55 C 731.30 464.88 704.84 443.47 678.81 421.56 C 673.60 425.88 668.40 430.22 663.16 434.51 C 646.68 448.20 630.11 461.77 613.55 475.37 C 607.38 480.23 601.58 485.58 595.18 490.13 C 586.00 496.15 574.77 497.72 564.02 497.68 C 556.70 497.61 550.29 493.48 544.60 489.30 C 530.92 479.16 521.54 464.26 515.30 448.62 C 512.08 439.73 508.73 430.61 508.61 421.03 C 508.63 408.50 513.40 396.16 521.26 386.47 C 524.63 382.22 528.63 378.55 532.60 374.89 C 542.51 366.48 552.19 357.80 562.09 349.38 C 567.27 344.93 572.46 340.49 577.67 336.07 C 563.93 324.29 550.39 312.24 537.46 299.56 C 531.12 293.51 526.23 286.20 520.69 279.47 C 517.58 275.46 513.92 271.76 511.85 267.06 C 507.76 257.94 507.71 247.37 510.63 237.90 C 514.23 224.18 522.12 212.16 530.29 200.77 C 521.90 184.39 512.31 168.57 500.72 154.24 C 486.25 136.20 469.91 119.49 451.03 106.04 C 435.79 95.23 419.75 85.14 402.05 78.89 C 396.22 76.34 392.88 69.21 394.77 63.11 Z" />
    <path d=" M 1098.39 64.59 C 1104.16 62.64 1109.80 65.86 1115.08 67.85 C 1135.14 76.70 1153.73 88.67 1170.97 102.17 C 1208.34 132.43 1238.40 171.99 1256.50 216.62 C 1257.83 219.94 1259.56 223.33 1259.12 227.03 C 1258.66 234.00 1252.04 239.85 1245.04 239.33 C 1239.25 239.23 1234.23 234.85 1232.54 229.45 C 1219.66 196.23 1199.19 166.24 1174.04 141.11 C 1161.06 127.79 1146.16 116.45 1130.44 106.57 C 1119.85 100.04 1108.91 93.87 1097.09 89.86 C 1091.74 87.70 1088.23 81.78 1088.95 76.04 C 1089.46 70.80 1093.37 66.15 1098.39 64.59 Z" />
    <path d=" M 376.35 363.49 C 381.17 361.49 387.03 362.65 390.74 366.30 C 413.01 387.01 435.26 407.74 457.53 428.45 C 460.45 431.00 463.43 433.97 464.07 437.98 C 465.36 443.83 462.17 450.23 456.76 452.76 C 451.86 455.31 445.48 454.29 441.55 450.43 C 418.25 428.73 394.89 407.09 371.66 385.33 C 364.96 378.99 367.72 366.58 376.35 363.49 Z" />
    <path d=" M 169.35 370.46 C 176.20 367.28 185.08 371.23 187.40 378.39 C 196.73 404.87 214.26 428.47 237.19 444.71 C 256.51 458.51 279.49 467.04 303.09 469.46 C 308.56 469.78 313.57 473.76 315.10 479.02 C 317.99 487.31 310.75 496.92 301.99 496.40 C 266.01 493.29 231.21 477.76 204.86 453.05 C 185.48 434.95 170.55 412.07 161.85 387.01 C 159.51 380.63 163.15 373.04 169.35 370.46 Z" />
    <path d=" M 1076.43 373.58 C 1081.13 372.19 1086.35 373.82 1089.75 377.27 C 1153.03 436.30 1216.37 495.27 1279.65 554.29 C 1283.67 557.90 1285.19 564.05 1283.10 569.07 C 1280.81 575.30 1273.48 579.13 1267.08 577.25 C 1263.60 576.46 1261.02 573.86 1258.55 571.48 C 1201.58 518.41 1144.64 465.31 1087.68 412.25 C 1081.59 406.33 1075.05 400.88 1069.21 394.73 C 1063.31 387.64 1067.50 375.65 1076.43 373.58 Z" />
    <path d=" M 864.23 381.11 C 871.55 377.85 880.58 382.74 882.46 390.38 C 892.93 419.46 913.48 444.84 939.94 460.86 C 956.94 471.18 976.20 477.80 995.96 480.02 C 1000.13 480.18 1004.40 481.65 1007.09 485.00 C 1012.38 490.84 1010.83 501.04 1004.04 505.05 C 999.75 508.09 994.29 507.10 989.46 506.41 C 957.84 502.15 927.52 488.52 903.52 467.48 C 882.20 448.89 865.84 424.68 856.50 397.99 C 854.03 391.44 857.78 383.61 864.23 381.11 Z" />
    <path d=" M 566.47 544.68 C 574.35 541.92 583.59 547.92 584.44 556.18 C 585.66 563.68 579.65 571.21 572.14 571.91 C 564.54 572.96 556.95 566.61 556.67 558.94 C 556.10 552.65 560.47 546.47 566.47 544.68 Z" />
  </g>
  <g fill="#6b4117">
    <path d=" M 69.78 156.57 C 70.47 155.68 71.22 154.84 72.07 154.10 C 57.73 180.86 46.59 209.38 39.85 239.01 C 31.36 275.61 29.19 313.60 32.89 350.97 C 38.53 408.20 58.74 464.08 91.87 511.16 C 127.53 562.15 178.59 602.75 237.42 623.58 C 276.81 637.60 319.39 642.66 360.94 637.82 C 398.41 633.79 434.79 621.52 467.57 603.03 C 472.75 612.66 477.82 622.35 482.99 631.99 C 489.00 643.16 498.30 652.89 510.11 657.88 C 519.07 661.89 529.68 661.58 538.65 657.76 C 546.10 654.62 553.07 650.40 559.53 645.56 C 573.64 634.45 586.47 621.85 599.49 609.51 C 598.53 619.17 593.01 627.63 587.19 635.13 C 581.14 642.73 574.35 649.72 567.13 656.21 C 554.31 668.73 541.33 681.17 527.16 692.18 C 516.52 699.59 504.50 707.10 491.00 706.35 C 478.71 705.61 467.65 698.29 459.80 689.15 C 453.81 682.42 450.14 674.12 445.86 666.29 C 442.63 660.36 439.65 654.29 436.24 648.46 C 403.91 667.49 367.35 679.16 330.12 683.45 C 282.71 688.93 233.96 681.67 190.11 662.87 C 129.44 637.08 78.67 590.15 45.75 533.28 C -4.20 447.74 -13.75 340.00 19.90 246.89 C 31.57 214.38 48.42 183.72 69.78 156.57 Z" />
    <path d=" M 745.95 192.07 C 751.69 182.87 757.87 173.84 765.02 165.66 C 762.35 172.54 757.96 178.65 755.78 185.73 C 752.31 187.53 749.06 189.73 745.95 192.07 Z" />
    <path d=" M 244.41 209.35 C 266.66 188.91 296.63 176.63 326.97 177.10 C 353.45 176.93 379.65 186.45 400.52 202.62 C 424.42 221.03 441.44 247.86 448.78 277.06 C 456.88 308.46 453.87 342.50 440.65 372.10 C 437.79 370.48 435.83 367.76 433.38 365.64 C 429.64 361.93 425.53 358.43 421.95 354.67 C 421.67 324.48 410.90 294.50 392.22 270.80 C 375.31 249.29 351.47 233.08 324.86 226.37 C 301.11 220.25 275.49 221.77 252.62 230.62 C 237.13 236.53 223.00 245.75 210.98 257.13 C 218.25 238.93 229.99 222.58 244.41 209.35 Z" />
    <path d=" M 992.96 190.77 C 1026.54 182.65 1063.30 190.39 1091.07 210.82 C 1125.62 235.66 1146.37 277.67 1146.90 320.02 C 1147.46 341.53 1143.29 363.30 1134.09 382.79 C 1127.94 377.13 1121.98 371.27 1115.91 365.54 C 1115.24 337.83 1106.56 310.26 1090.56 287.56 C 1073.18 262.59 1046.84 243.68 1017.14 236.59 C 986.02 228.93 952.00 234.67 925.01 251.92 C 917.86 256.37 911.28 261.67 905.07 267.34 C 906.68 261.75 909.78 256.74 912.58 251.68 C 929.79 221.75 959.14 198.59 992.96 190.77 Z" />
    <path d=" M 499.99 237.00 C 507.21 222.96 516.12 208.67 530.29 200.77 C 522.12 212.16 514.23 224.18 510.63 237.90 C 507.71 247.37 507.76 257.94 511.85 267.06 C 513.92 271.76 517.58 275.46 520.69 279.47 C 526.23 286.20 531.12 293.51 537.46 299.56 C 550.39 312.24 563.93 324.29 577.67 336.07 C 572.46 340.49 567.27 344.93 562.09 349.38 C 547.97 336.37 533.16 324.07 519.72 310.33 C 512.84 303.07 507.27 294.72 500.79 287.12 C 496.39 282.08 493.88 275.62 493.19 269.01 C 491.73 257.92 495.50 246.97 499.99 237.00 Z" />
    <path d=" M 523.13 382.26 C 526.16 379.65 528.78 376.39 532.60 374.89 C 528.63 378.55 524.63 382.22 521.26 386.47 C 513.40 396.16 508.63 408.50 508.61 421.03 C 508.73 430.61 512.08 439.73 515.30 448.62 C 521.54 464.26 530.92 479.16 544.60 489.30 C 550.29 493.48 556.70 497.61 564.02 497.68 C 574.77 497.72 586.00 496.15 595.18 490.13 C 591.49 493.47 587.57 496.55 583.77 499.76 C 573.71 508.38 559.99 510.91 547.10 510.42 C 539.73 509.95 533.48 505.54 527.77 501.26 C 514.08 490.68 504.84 475.36 498.77 459.36 C 495.79 450.87 492.78 442.13 492.89 433.02 C 493.04 419.86 498.61 407.10 507.21 397.26 C 511.96 391.69 517.79 387.22 523.13 382.26 Z" />
    <path d=" M 307.70 400.70 C 313.72 394.39 320.15 388.42 327.35 383.46 C 330.41 392.34 335.09 400.67 341.24 407.78 C 350.02 418.89 359.04 429.88 367.01 441.58 C 347.24 448.51 325.72 450.46 305.09 446.68 C 300.79 440.11 296.55 432.96 295.82 424.99 C 296.16 415.68 301.28 407.18 307.70 400.70 Z" />
    <path d=" M 1021.14 393.68 L 1021.41 393.45 C 1023.54 403.18 1029.41 411.69 1035.71 419.24 C 1044.33 429.97 1052.73 440.88 1060.88 451.98 C 1044.37 458.09 1026.45 460.33 1008.93 458.63 C 1005.53 458.41 1002.19 457.62 998.78 457.57 L 998.56 457.16 C 994.86 450.82 990.74 444.35 989.68 436.95 C 989.17 429.35 992.78 422.08 997.20 416.11 C 1004.22 407.68 1012.50 400.41 1021.14 393.68 Z" />
    <path d=" M 663.16 434.51 C 668.40 430.22 673.60 425.88 678.81 421.56 C 704.84 443.47 731.30 464.88 757.54 486.55 C 767.46 495.35 781.17 497.98 794.07 497.65 C 798.08 497.55 801.87 496.03 805.44 494.32 C 804.36 495.64 803.35 497.04 802.07 498.18 C 795.17 504.02 787.46 509.62 778.24 510.79 C 810.30 560.76 856.52 601.96 910.94 626.07 C 957.03 646.68 1008.82 654.48 1058.90 647.90 C 1094.82 643.37 1129.73 631.54 1161.15 613.59 C 1166.36 622.59 1170.93 631.95 1175.93 641.07 C 1181.92 652.77 1191.35 663.13 1203.61 668.33 C 1212.63 672.47 1223.33 672.19 1232.41 668.35 C 1240.25 665.03 1247.60 660.56 1254.32 655.34 C 1268.03 644.43 1280.51 632.11 1293.26 620.13 C 1292.44 628.14 1288.39 635.39 1283.82 641.86 C 1273.74 655.93 1260.33 667.05 1248.08 679.11 C 1234.17 691.78 1220.52 705.52 1203.06 713.24 C 1195.01 717.04 1185.59 718.02 1176.99 715.64 C 1163.32 711.40 1152.39 700.76 1145.71 688.33 C 1140.51 678.59 1135.30 668.85 1130.19 659.07 C 1095.08 679.36 1055.39 691.66 1014.97 694.87 C 966.05 698.95 916.17 689.45 872.01 668.07 C 818.45 642.37 773.48 600.03 742.75 549.36 C 728.42 525.75 717.04 500.35 708.97 473.94 C 708.54 471.41 706.16 470.14 704.40 468.59 C 690.63 457.27 676.84 445.95 663.16 434.51 Z" />
  </g>
</svg>
