<svg width="1325pt" height="729pt" viewBox="0 0 1325 729" xmlns="http://www.w3.org/2000/svg">
  <g fill="#ca3500">
    <path d=" M 1015.36 0.00 L 1020.62 0.00 C 1070.39 0.45 1119.62 15.82 1161.55 42.45 C 1215.26 76.32 1257.21 127.29 1283.42 184.87 C 1299.59 220.27 1309.96 258.27 1314.44 296.92 C 1319.67 342.40 1317.30 389.11 1304.38 433.18 C 1299.33 450.88 1292.14 467.87 1284.04 484.37 C 1279.59 491.99 1275.32 499.73 1270.49 507.13 C 1271.98 508.55 1273.51 509.94 1275.08 511.29 C 1280.19 515.76 1285.34 520.23 1291.00 524.01 C 1300.08 530.51 1307.00 539.39 1314.62 547.44 C 1322.63 555.96 1326.76 568.57 1323.85 580.08 C 1320.98 593.94 1311.25 604.92 1301.87 614.96 C 1287.72 628.77 1273.60 642.65 1258.46 655.38 C 1251.85 661.04 1244.56 665.90 1236.75 669.74 C 1228.50 674.05 1218.75 675.80 1209.63 673.54 C 1195.62 669.67 1184.39 658.91 1177.57 646.35 C 1170.15 632.37 1163.26 618.12 1155.80 604.16 C 1118.38 620.95 1077.63 629.88 1036.70 631.55 C 986.26 633.71 935.02 624.63 889.31 602.86 C 848.52 583.57 812.46 554.09 786.09 517.41 C 793.21 509.44 799.19 500.36 803.25 490.46 C 814.50 479.76 822.44 465.97 827.67 451.45 C 830.57 442.91 833.50 434.09 832.96 424.94 C 832.20 409.56 824.20 395.22 812.85 385.07 C 799.18 372.89 785.29 360.94 771.39 349.02 C 778.83 341.92 786.64 335.09 792.81 326.81 C 796.84 321.53 801.04 316.37 805.20 311.18 C 807.75 308.03 809.58 304.33 810.46 300.37 C 815.45 293.76 820.63 287.29 825.84 280.85 C 832.18 273.13 833.88 262.53 832.62 252.84 C 830.26 237.83 822.66 224.29 813.91 212.10 C 805.19 200.69 792.73 191.72 778.55 188.71 C 771.23 187.12 763.68 187.63 756.34 188.71 C 762.31 174.12 769.29 159.95 777.22 146.33 C 806.71 95.50 850.32 52.26 903.41 26.49 C 938.15 9.49 976.69 0.40 1015.36 0.00 M 962.37 178.22 C 936.02 194.80 915.61 220.19 904.00 249.00 C 900.37 258.39 896.95 268.05 895.63 278.06 C 895.53 278.30 895.33 278.78 895.23 279.02 C 887.72 317.28 895.84 359.06 919.73 390.24 C 938.65 415.35 968.16 432.17 999.50 435.18 C 1015.79 436.82 1032.40 434.92 1047.98 429.90 C 1040.88 419.97 1032.14 411.22 1026.02 400.62 C 1023.02 394.58 1019.36 388.11 1020.63 381.11 C 1022.03 373.85 1025.79 367.14 1030.89 361.82 C 1038.96 353.20 1047.81 345.12 1058.07 339.17 C 1065.68 334.81 1074.90 332.12 1083.58 334.66 C 1089.25 336.14 1093.96 339.86 1097.95 344.02 C 1106.81 352.48 1115.52 361.10 1124.49 369.44 L 1124.69 368.46 C 1145.91 335.02 1153.55 292.95 1144.64 254.27 C 1139.06 229.86 1126.73 206.82 1108.49 189.54 C 1086.41 168.37 1055.55 156.76 1025.00 158.19 C 1002.81 159.09 981.09 166.39 962.37 178.22 Z" />
    <path d=" M 279.00 10.11 C 321.96 4.96 366.13 10.86 406.34 26.83 C 449.02 43.64 487.11 71.23 517.76 105.24 C 540.30 130.19 558.93 158.59 573.28 188.98 C 564.71 187.54 555.79 186.94 547.30 189.21 C 532.63 193.05 519.98 203.04 511.64 215.56 C 507.67 221.62 503.88 227.81 500.85 234.40 C 493.53 240.83 488.57 249.35 483.71 257.67 C 479.01 266.07 475.63 275.32 474.31 284.87 C 473.33 294.43 475.35 304.72 481.74 312.16 C 487.58 319.08 492.80 326.49 498.74 333.33 C 510.25 345.38 522.83 356.35 535.29 367.40 C 524.08 377.80 510.82 386.58 502.83 399.95 C 500.29 404.14 498.41 408.71 496.98 413.40 C 486.68 421.85 478.52 433.28 475.48 446.39 C 473.45 454.47 473.70 463.04 475.97 471.05 C 481.10 490.06 490.11 508.72 504.96 522.04 C 512.09 528.04 520.21 534.44 530.01 534.43 C 539.86 534.23 550.13 532.96 558.69 527.70 C 563.89 524.58 568.25 520.30 573.01 516.58 C 578.05 521.06 584.00 524.38 588.93 529.00 C 595.55 535.07 601.27 542.02 607.40 548.56 C 616.46 558.51 618.64 573.50 614.00 585.96 C 609.84 597.20 601.73 606.36 593.65 614.97 C 580.02 628.25 566.45 641.63 551.93 653.95 C 543.57 661.27 534.20 667.57 523.88 671.80 C 513.98 675.86 502.27 675.43 492.89 670.17 C 482.60 664.94 474.56 656.00 469.13 645.93 C 462.96 634.32 457.24 622.48 451.07 610.87 C 418.78 625.78 383.94 634.95 348.57 638.41 C 305.70 642.66 261.88 639.13 220.63 626.47 C 186.43 616.02 154.09 599.25 126.26 576.73 C 85.06 543.66 54.62 497.99 38.17 447.91 C 23.48 403.68 18.79 356.45 21.91 310.06 C 23.66 283.45 28.67 257.16 35.82 231.50 C 38.08 225.14 39.89 218.62 42.25 212.28 C 62.55 155.28 97.92 103.14 145.77 65.74 C 184.06 35.63 230.52 15.70 279.00 10.11 M 233.99 201.93 C 209.62 224.21 193.08 254.71 187.04 287.12 C 179.12 327.25 188.44 371.36 215.05 402.92 C 234.06 425.82 262.25 440.78 291.90 443.54 C 309.76 445.18 327.97 442.71 344.77 436.44 C 338.59 428.24 332.27 420.15 325.83 412.17 C 322.75 408.61 320.16 404.67 317.80 400.61 C 314.41 393.97 310.44 386.50 312.91 378.85 C 315.71 367.52 324.64 359.44 332.84 351.78 C 341.34 344.35 350.65 337.00 361.88 334.39 C 370.41 332.31 379.82 334.76 386.26 340.72 C 396.74 350.66 407.04 360.80 417.55 370.71 C 417.94 371.13 418.72 371.97 419.11 372.39 C 439.99 336.90 446.00 292.55 433.88 253.04 C 426.13 227.45 410.52 204.01 388.78 188.24 C 366.89 172.18 339.12 164.43 312.08 166.76 C 283.01 169.10 255.35 182.29 233.99 201.93 Z" />
  </g>
  <g fill="#846748">
    <path d=" M 962.37 178.22 C 981.09 166.39 1002.81 159.09 1025.00 158.19 C 1055.55 156.76 1086.41 168.37 1108.49 189.54 C 1126.73 206.82 1139.06 229.86 1144.64 254.27 C 1153.55 292.95 1145.91 335.02 1124.69 368.46 C 1129.90 341.01 1127.35 311.98 1116.59 286.14 C 1105.46 259.02 1084.63 235.66 1057.98 223.10 C 1031.10 210.07 999.20 208.62 970.97 218.10 C 939.73 228.27 913.13 250.45 895.63 278.06 C 896.95 268.05 900.37 258.39 904.00 249.00 C 915.61 220.19 936.02 194.80 962.37 178.22 Z" />
    <path d=" M 233.99 201.93 C 255.35 182.29 283.01 169.10 312.08 166.76 C 339.12 164.43 366.89 172.18 388.78 188.24 C 410.52 204.01 426.13 227.45 433.88 253.04 C 446.00 292.55 439.99 336.90 419.11 372.39 C 418.72 371.97 417.94 371.13 417.55 370.71 C 421.68 341.90 417.54 311.71 404.35 285.65 C 392.45 261.82 372.67 241.78 348.33 230.70 C 324.60 219.66 297.10 217.38 271.76 223.79 C 236.54 232.49 205.96 256.41 187.04 287.12 C 193.08 254.71 209.62 224.21 233.99 201.93 Z" />
    <path d=" M 0.00 379.87 C 1.70 328.69 13.26 277.59 35.82 231.50 C 28.67 257.16 23.66 283.45 21.91 310.06 C 18.79 356.45 23.48 403.68 38.17 447.91 C 54.62 497.99 85.06 543.66 126.26 576.73 C 154.09 599.25 186.43 616.02 220.63 626.47 C 261.88 639.13 305.70 642.66 348.57 638.41 C 383.94 634.95 418.78 625.78 451.07 610.87 C 457.24 622.48 462.96 634.32 469.13 645.93 C 474.56 656.00 482.60 664.94 492.89 670.17 C 502.27 675.43 513.98 675.86 523.88 671.80 C 534.20 667.57 543.57 661.27 551.93 653.95 C 566.45 641.63 580.02 628.25 593.65 614.97 C 596.95 625.52 595.27 637.25 589.82 646.79 C 580.75 662.79 566.39 674.67 553.46 687.40 C 543.50 696.80 533.46 706.19 522.57 714.52 C 512.33 721.63 500.86 728.61 487.98 728.56 C 469.80 727.47 454.93 713.64 447.14 697.96 C 441.37 686.90 435.83 675.73 430.06 664.67 C 385.81 685.32 336.70 694.63 287.99 693.96 C 250.00 693.41 212.00 686.38 176.69 672.26 C 147.29 660.54 119.83 643.88 96.13 622.88 C 70.66 600.41 49.66 572.97 34.25 542.72 C 11.88 499.10 1.53 450.09 0.00 401.30 L 0.00 379.87 Z" />
    <path d=" M 483.71 257.67 C 488.57 249.35 493.53 240.83 500.85 234.40 C 496.23 245.57 492.87 258.15 496.57 270.10 C 498.39 277.41 503.88 282.77 508.35 288.54 C 513.00 294.23 517.14 300.37 522.41 305.54 C 535.51 318.70 549.59 330.83 563.46 343.15 C 554.07 351.23 544.63 359.25 535.29 367.40 C 522.83 356.35 510.25 345.38 498.74 333.33 C 492.80 326.49 487.58 319.08 481.74 312.16 C 475.35 304.72 473.33 294.43 474.31 284.87 C 475.63 275.32 479.01 266.07 483.71 257.67 Z" />
    <path d=" M 764.55 343.14 C 780.14 329.21 796.20 315.70 810.46 300.37 C 809.58 304.33 807.75 308.03 805.20 311.18 C 801.04 316.37 796.84 321.53 792.81 326.81 C 786.64 335.09 778.83 341.92 771.39 349.02 C 769.10 347.07 766.79 345.13 764.55 343.14 Z" />
    <path d=" M 299.78 417.81 C 305.30 411.60 311.29 405.78 317.80 400.61 C 320.16 404.67 322.75 408.61 325.83 412.17 C 332.27 420.15 338.59 428.24 344.77 436.44 C 327.97 442.71 309.76 445.18 291.90 443.54 C 289.40 434.30 294.06 424.86 299.78 417.81 Z" />
    <path d=" M 1008.82 416.85 C 1014.14 411.02 1019.81 405.50 1026.02 400.62 C 1032.14 411.22 1040.88 419.97 1047.98 429.90 C 1032.40 434.92 1015.79 436.82 999.50 435.18 C 1000.94 428.40 1004.15 421.99 1008.82 416.85 Z" />
    <path d=" M 475.48 446.39 C 478.52 433.28 486.68 421.85 496.98 413.40 C 495.60 418.48 494.78 423.75 495.04 429.03 C 495.41 437.30 498.20 445.20 500.89 452.95 C 506.95 468.99 516.27 484.34 530.08 494.83 C 536.13 499.42 543.03 503.87 550.93 503.75 C 559.93 503.49 569.25 502.57 577.34 498.27 C 582.71 495.61 587.07 491.44 591.69 487.72 C 615.84 467.92 639.95 448.07 664.00 428.15 C 688.05 448.06 712.15 467.92 736.30 487.71 C 740.94 491.44 745.31 495.63 750.71 498.28 C 758.75 502.56 768.02 503.47 776.97 503.75 C 787.33 503.80 795.73 496.75 803.25 490.46 C 799.19 500.36 793.21 509.44 786.09 517.41 C 812.46 554.09 848.52 583.57 889.31 602.86 C 935.02 624.63 986.26 633.71 1036.70 631.55 C 1077.63 629.88 1118.38 620.95 1155.80 604.16 C 1163.26 618.12 1170.15 632.37 1177.57 646.35 C 1184.39 658.91 1195.62 669.67 1209.63 673.54 C 1218.75 675.80 1228.50 674.05 1236.75 669.74 C 1244.56 665.90 1251.85 661.04 1258.46 655.38 C 1273.60 642.65 1287.72 628.77 1301.87 614.96 C 1305.14 625.57 1303.47 637.36 1297.95 646.93 C 1288.84 662.92 1274.47 674.79 1261.54 687.53 C 1251.36 697.09 1241.17 706.71 1229.99 715.09 C 1219.91 721.97 1208.63 728.71 1196.02 728.54 C 1183.16 727.82 1171.55 720.24 1163.52 710.50 C 1158.26 704.38 1154.87 697.01 1151.19 689.91 C 1145.75 679.25 1140.36 668.57 1134.80 657.98 C 1115.31 666.75 1094.90 673.42 1074.02 677.96 C 1030.08 687.43 984.21 688.38 940.02 680.01 C 888.04 670.23 838.42 646.48 799.62 610.33 C 775.90 588.35 756.31 562.00 741.79 533.12 C 735.06 531.73 728.57 529.00 723.15 524.75 C 696.40 502.85 669.72 480.87 643.08 458.84 C 619.77 478.14 596.41 497.39 573.01 516.58 C 568.25 520.30 563.89 524.58 558.69 527.70 C 550.13 532.96 539.86 534.23 530.01 534.43 C 520.21 534.44 512.09 528.04 504.96 522.04 C 490.11 508.72 481.10 490.06 475.97 471.05 C 473.70 463.04 473.45 454.47 475.48 446.39 Z" />
    <path d=" M 1270.49 507.13 C 1275.32 499.73 1279.59 491.99 1284.04 484.37 C 1281.67 493.53 1278.49 502.46 1275.08 511.29 C 1273.51 509.94 1271.98 508.55 1270.49 507.13 Z" />
  </g>
  <path fill="#ffe0b6" d=" M 547.30 189.21 C 555.79 186.94 564.71 187.54 573.28 188.98 C 581.52 190.41 589.31 194.00 595.98 199.02 C 606.20 206.80 616.36 214.66 626.49 222.55 C 639.14 232.59 652.07 242.33 664.00 253.22 C 671.66 246.11 679.90 239.69 688.05 233.16 C 702.59 221.62 717.28 210.27 732.04 199.01 C 739.13 193.65 747.52 189.98 756.34 188.71 C 763.68 187.63 771.23 187.12 778.55 188.71 C 792.73 191.72 805.19 200.69 813.91 212.10 C 822.66 224.29 830.26 237.83 832.62 252.84 C 833.88 262.53 832.18 273.13 825.84 280.85 C 820.63 287.29 815.45 293.76 810.46 300.37 C 796.20 315.70 780.14 329.21 764.55 343.14 C 766.79 345.13 769.10 347.07 771.39 349.02 C 785.29 360.94 799.18 372.89 812.85 385.07 C 824.20 395.22 832.20 409.56 832.96 424.94 C 833.50 434.09 830.57 442.91 827.67 451.45 C 822.44 465.97 814.50 479.76 803.25 490.46 C 795.73 496.75 787.33 503.80 776.97 503.75 C 768.02 503.47 758.75 502.56 750.71 498.28 C 745.31 495.63 740.94 491.44 736.30 487.71 C 712.15 467.92 688.05 448.06 664.00 428.15 C 639.95 448.07 615.84 467.92 591.69 487.72 C 587.07 491.44 582.71 495.61 577.34 498.27 C 569.25 502.57 559.93 503.49 550.93 503.75 C 543.03 503.87 536.13 499.42 530.08 494.83 C 516.27 484.34 506.95 468.99 500.89 452.95 C 498.20 445.20 495.41 437.30 495.04 429.03 C 494.78 423.75 495.60 418.48 496.98 413.40 C 498.41 408.71 500.29 404.14 502.83 399.95 C 510.82 386.58 524.08 377.80 535.29 367.40 C 544.63 359.25 554.07 351.23 563.46 343.15 C 549.59 330.83 535.51 318.70 522.41 305.54 C 517.14 300.37 513.00 294.23 508.35 288.54 C 503.88 282.77 498.39 277.41 496.57 270.10 C 492.87 258.15 496.23 245.57 500.85 234.40 C 503.88 227.81 507.67 221.62 511.64 215.56 C 519.98 203.04 532.63 193.05 547.30 189.21 Z" />
</svg>
